<svg xmlns="http://www.w3.org/2000/svg" width="805" height="600"><rect width="805" height="600" x="0" y="0" fill="#FFFFFF" id="background"/><g id="series"><g transform="translate(0,0)"><g transform="translate(50,50)" clip-path="url(#serieClipPath)"><g id="axis"><g transform="translate(0,500)" fill="none" font-size="10" font-family="sans-serif" text-anchor="middle"><path class="domain" stroke="currentColor" d="M0,6V0H705V6"/><g class="tick" opacity="1" transform="translate(0,0)"><line stroke="currentColor" y2="6"/><text fill="currentColor" y="9" dy="0.71em">1980</text></g><g class="tick" opacity="1" transform="translate(64,0)"><line stroke="currentColor" y2="6"/><text fill="currentColor" y="9" dy="0.71em">1985</text></g><g class="tick" opacity="1" transform="translate(128,0)"><line stroke="currentColor" y2="6"/><text fill="currentColor" y="9" dy="0.71em">1990</text></g><g class="tick" opacity="1" transform="translate(192,0)"><line stroke="currentColor" y2="6"/><text fill="currentColor" y="9" dy="0.71em">1995</text></g><g class="tick" opacity="1" transform="translate(256,0)"><line stroke="currentColor" y2="6"/><text fill="currentColor" y="9" dy="0.71em">2000</text></g><g class="tick" opacity="1" transform="translate(320,0)"><line stroke="currentColor" y2="6"/><text fill="currentColor" y="9" dy="0.71em">2005</text></g><g class="tick" opacity="1" transform="translate(385,0)"><line stroke="currentColor" y2="6"/><text fill="currentColor" y="9" dy="0.71em">2010</text></g><g class="tick" opacity="1" transform="translate(449,0)"><line stroke="currentColor" y2="6"/><text fill="currentColor" y="9" dy="0.71em">2015</text></g><g class="tick" opacity="1" transform="translate(513,0)"><line stroke="currentColor" y2="6"/><text fill="currentColor" y="9" dy="0.71em">2020</text></g><g class="tick" opacity="1" transform="translate(577,0)"><line stroke="currentColor" y2="6"/><text fill="currentColor" y="9" dy="0.71em">2025</text></g><g class="tick" opacity="1" transform="translate(641,0)"><line stroke="currentColor" y2="6"/><text fill="currentColor" y="9" dy="0.71em">2030</text></g><g class="tick" opacity="1" transform="translate(705,0)"><line stroke="currentColor" y2="6"/><text fill="currentColor" y="9" dy="0.71em">2035</text></g><text x="705" dy="-5" text-anchor="end" style="font-family: Arial, sans-serif; font-size: 12px; fill: rgb(123, 123, 123); font-weight: bold;">date</text></g><g fill="none" font-size="10" font-family="sans-serif" text-anchor="end"><path class="domain" stroke="currentColor" d="M-6,500H0V0H-6"/><g class="tick" opacity="1" transform="translate(0,500)"><line stroke="currentColor" x2="-6"/><text fill="currentColor" x="-9" dy="0.32em">0</text></g><g class="tick" opacity="1" transform="translate(0,458)"><line stroke="currentColor" x2="-6"/><text fill="currentColor" x="-9" dy="0.32em">1,000</text></g><g class="tick" opacity="1" transform="translate(0,417)"><line stroke="currentColor" x2="-6"/><text fill="currentColor" x="-9" dy="0.32em">2,000</text></g><g class="tick" opacity="1" transform="translate(0,375)"><line stroke="currentColor" x2="-6"/><text fill="currentColor" x="-9" dy="0.32em">3,000</text></g><g class="tick" opacity="1" transform="translate(0,333)"><line stroke="currentColor" x2="-6"/><text fill="currentColor" x="-9" dy="0.32em">4,000</text></g><g class="tick" opacity="1" transform="translate(0,292)"><line stroke="currentColor" x2="-6"/><text fill="currentColor" x="-9" dy="0.32em">5,000</text></g><g class="tick" opacity="1" transform="translate(0,250)"><line stroke="currentColor" x2="-6"/><text fill="currentColor" x="-9" dy="0.32em">6,000</text></g><g class="tick" opacity="1" transform="translate(0,208)"><line stroke="currentColor" x2="-6"/><text fill="currentColor" x="-9" dy="0.32em">7,000</text></g><g class="tick" opacity="1" transform="translate(0,167)"><line stroke="currentColor" x2="-6"/><text fill="currentColor" x="-9" dy="0.32em">8,000</text></g><g class="tick" opacity="1" transform="translate(0,125)"><line stroke="currentColor" x2="-6"/><text fill="currentColor" x="-9" dy="0.32em">9,000</text></g><g class="tick" opacity="1" transform="translate(0,83)"><line stroke="currentColor" x2="-6"/><text fill="currentColor" x="-9" dy="0.32em">10,000</text></g><g class="tick" opacity="1" transform="translate(0,42)"><line stroke="currentColor" x2="-6"/><text fill="currentColor" x="-9" dy="0.32em">11,000</text></g><g class="tick" opacity="1" transform="translate(0,0)"><line stroke="currentColor" x2="-6"/><text fill="currentColor" x="-9" dy="0.32em">12,000</text></g><text x="4" text-anchor="start" dominant-baseline="hanging" style="font-family: Arial, sans-serif; font-size: 12px; fill: rgb(123, 123, 123); font-weight: bold;">participants</text></g></g><g id="viz"><g><circle cx="693" fill="#cccccc" r="7.5" stroke="none"/></g><g><circle cx="667" fill="#1f77b4" r="7.5" stroke="none"/></g><g><circle cx="642" fill="#e377c2" r="7.5" stroke="none"/></g><g><circle cx="615" fill="#cccccc" r="7.5" stroke="none"/></g><g><circle cx="590" fill="#bcbd22" r="7.5" stroke="none"/></g><g><circle cx="564" cy="63" fill="#e377c2" r="7.5" stroke="none"/></g><g><circle cx="538" cy="496" fill="#cccccc" r="7.5" stroke="none"/></g><g><circle cx="538" cy="384" fill="#cccccc" r="7.5" stroke="none"/></g><g><circle cx="538" cy="496" fill="#cccccc" r="7.5" stroke="none"/></g><g><circle cx="538" cy="384" fill="#cccccc" r="7.5" stroke="none"/></g><g><circle cx="538" cy="496" fill="#cccccc" r="7.5" stroke="none"/></g><g><circle cx="538" cy="384" fill="#cccccc" r="7.5" stroke="none"/></g><g><circle cx="538" cy="496" fill="#cccccc" r="7.5" stroke="none"/></g><g><circle cx="538" cy="384" fill="#cccccc" r="7.5" stroke="none"/></g><g><circle cx="538" cy="496" fill="#cccccc" r="7.5" stroke="none"/></g><g><circle cx="538" cy="384" fill="#cccccc" r="7.5" stroke="none"/></g><g><circle cx="538" cy="496" fill="#cccccc" r="7.5" stroke="none"/></g><g><circle cx="538" cy="384" fill="#cccccc" r="7.5" stroke="none"/></g><g><circle cx="538" cy="496" fill="#cccccc" r="7.5" stroke="none"/></g><g><circle cx="538" cy="384" fill="#cccccc" r="7.5" stroke="none"/></g><g><circle cx="538" cy="496" fill="#cccccc" r="7.5" stroke="none"/></g><g><circle cx="538" cy="384" fill="#cccccc" r="7.5" stroke="none"/></g><g><circle cx="526" cy="491" fill="#17becf" r="7.5" stroke="none"/></g><g><circle cx="526" cy="24" fill="#17becf" r="7.5" stroke="none"/></g><g><circle cx="487" cy="496" fill="#9467bd" r="7.5" stroke="none"/></g><g><circle cx="487" cy="382" fill="#9467bd" r="7.5" stroke="none"/></g><g><circle cx="487" cy="496" fill="#9467bd" r="7.5" stroke="none"/></g><g><circle cx="487" cy="382" fill="#9467bd" r="7.5" stroke="none"/></g><g><circle cx="461" cy="32" fill="#2ca02c" r="7.5" stroke="none"/></g><g><circle cx="437" cy="496" fill="#cccccc" r="7.5" stroke="none"/></g><g><circle cx="437" cy="384" fill="#cccccc" r="7.5" stroke="none"/></g><g><circle cx="437" cy="496" fill="#cccccc" r="7.5" stroke="none"/></g><g><circle cx="437" cy="384" fill="#cccccc" r="7.5" stroke="none"/></g><g><circle cx="410" cy="492" fill="#cccccc" r="7.5" stroke="none"/></g><g><circle cx="410" cy="60" fill="#cccccc" r="7.5" stroke="none"/></g><g><circle cx="386" cy="497" fill="#d62728" r="7.5" stroke="none"/></g><g><circle cx="386" cy="393" fill="#d62728" r="7.5" stroke="none"/></g><g><circle cx="366" cy="492" fill="#cccccc" r="7.5" stroke="none"/></g><g><circle cx="366" cy="44" fill="#cccccc" r="7.5" stroke="none"/></g><g><circle cx="334" cy="497" fill="#bcbd22" r="7.5" stroke="none"/></g><g><circle cx="334" cy="396" fill="#bcbd22" r="7.5" stroke="none"/></g><g><circle cx="308" cy="492" fill="#7f7f7f" r="7.5" stroke="none"/></g><g><circle cx="308" cy="57" fill="#7f7f7f" r="7.5" stroke="none"/></g><g><circle cx="308" cy="492" fill="#7f7f7f" r="7.5" stroke="none"/></g><g><circle cx="308" cy="57" fill="#7f7f7f" r="7.5" stroke="none"/></g><g><circle cx="283" cy="497" fill="#cccccc" r="7.5" stroke="none"/></g><g><circle cx="283" cy="400" fill="#cccccc" r="7.5" stroke="none"/></g><g><circle cx="256" cy="492" fill="#1f77b4" r="7.5" stroke="none"/></g><g><circle cx="256" cy="56" fill="#1f77b4" r="7.5" stroke="none"/></g><g><circle cx="232" cy="497" fill="#17becf" r="7.5" stroke="none"/></g><g><circle cx="206" cy="409" fill="#17becf" r="7.5" stroke="none"/></g><g><circle cx="205" cy="492" fill="#cccccc" r="7.5" stroke="none"/></g><g><circle cx="205" cy="70" fill="#cccccc" r="7.5" stroke="none"/></g><g><circle cx="205" cy="492" fill="#cccccc" r="7.5" stroke="none"/></g><g><circle cx="205" cy="70" fill="#cccccc" r="7.5" stroke="none"/></g><g><circle cx="181" cy="497" fill="#cccccc" r="7.5" stroke="none"/></g><g><circle cx="181" cy="428" fill="#cccccc" r="7.5" stroke="none"/></g><g><circle cx="181" cy="497" fill="#cccccc" r="7.5" stroke="none"/></g><g><circle cx="181" cy="428" fill="#cccccc" r="7.5" stroke="none"/></g><g><circle cx="181" cy="497" fill="#cccccc" r="7.5" stroke="none"/></g><g><circle cx="181" cy="428" fill="#cccccc" r="7.5" stroke="none"/></g><g><circle cx="181" cy="497" fill="#cccccc" r="7.5" stroke="none"/></g><g><circle cx="181" cy="428" fill="#cccccc" r="7.5" stroke="none"/></g><g><circle cx="181" cy="497" fill="#cccccc" r="7.5" stroke="none"/></g><g><circle cx="181" cy="428" fill="#cccccc" r="7.5" stroke="none"/></g><g><circle cx="181" cy="497" fill="#cccccc" r="7.5" stroke="none"/></g><g><circle cx="181" cy="428" fill="#cccccc" r="7.5" stroke="none"/></g><g><circle cx="181" cy="497" fill="#cccccc" r="7.5" stroke="none"/></g><g><circle cx="181" cy="428" fill="#cccccc" r="7.5" stroke="none"/></g><g><circle cx="181" cy="497" fill="#cccccc" r="7.5" stroke="none"/></g><g><circle cx="181" cy="428" fill="#cccccc" r="7.5" stroke="none"/></g><g><circle cx="154" cy="497" fill="#e377c2" r="7.5" stroke="none"/></g><g><circle cx="154" cy="425" fill="#e377c2" r="7.5" stroke="none"/></g><g><circle cx="154" cy="493" fill="#8c564b" r="7.5" stroke="none"/></g><g><circle cx="154" cy="110" fill="#8c564b" r="7.5" stroke="none"/></g><g><circle cx="104" cy="498" fill="#d62728" r="7.5" stroke="none"/></g><g><circle cx="104" cy="441" fill="#d62728" r="7.5" stroke="none"/></g><g><circle cx="103" cy="493" fill="#9467bd" r="7.5" stroke="none"/></g><g><circle cx="103" cy="150" fill="#9467bd" r="7.5" stroke="none"/></g><g><circle cx="51" cy="498" fill="#ff7f0e" r="7.5" stroke="none"/></g><g><circle cx="51" cy="447" fill="#ff7f0e" r="7.5" stroke="none"/></g><g><circle cx="51" cy="498" fill="#ff7f0e" r="7.5" stroke="none"/></g><g><circle cx="51" cy="447" fill="#ff7f0e" r="7.5" stroke="none"/></g><g><circle cx="51" cy="498" fill="#ff7f0e" r="7.5" stroke="none"/></g><g><circle cx="51" cy="447" fill="#ff7f0e" r="7.5" stroke="none"/></g><g><circle cx="51" cy="498" fill="#ff7f0e" r="7.5" stroke="none"/></g><g><circle cx="51" cy="447" fill="#ff7f0e" r="7.5" stroke="none"/></g><g><circle cx="51" cy="498" fill="#ff7f0e" r="7.5" stroke="none"/></g><g><circle cx="51" cy="447" fill="#ff7f0e" r="7.5" stroke="none"/></g><g><circle cx="51" cy="498" fill="#ff7f0e" r="7.5" stroke="none"/></g><g><circle cx="51" cy="447" fill="#ff7f0e" r="7.5" stroke="none"/></g><g><circle cx="51" cy="498" fill="#ff7f0e" r="7.5" stroke="none"/></g><g><circle cx="51" cy="447" fill="#ff7f0e" r="7.5" stroke="none"/></g><g><circle cx="51" cy="498" fill="#ff7f0e" r="7.5" stroke="none"/></g><g><circle cx="51" cy="447" fill="#ff7f0e" r="7.5" stroke="none"/></g><g><circle cx="51" cy="498" fill="#ff7f0e" r="7.5" stroke="none"/></g><g><circle cx="51" cy="447" fill="#ff7f0e" r="7.5" stroke="none"/></g><g><circle cx="51" cy="498" fill="#ff7f0e" r="7.5" stroke="none"/></g><g><circle cx="51" cy="447" fill="#ff7f0e" r="7.5" stroke="none"/></g><g><circle cx="1" cy="498" fill="#cccccc" r="7.5" stroke="none"/></g><g id="labels"><g transform="translate(693,undefined)"><text x="0" y="0" text-anchor="middle" dominant-baseline="text-before-edge" transform="translate(0,0)"/></g><g transform="translate(667,undefined)"><text x="0" y="0" text-anchor="middle" dominant-baseline="text-before-edge" transform="translate(0,0)"/></g><g transform="translate(642,undefined)"><text x="0" y="0" text-anchor="middle" dominant-baseline="text-before-edge" transform="translate(0,0)"/></g><g transform="translate(615,undefined)"><text x="0" y="0" text-anchor="middle" dominant-baseline="text-before-edge" transform="translate(0,0)"/></g><g transform="translate(590,undefined)"><text x="0" y="0" text-anchor="middle" dominant-baseline="text-before-edge" transform="translate(0,0)"/></g><g transform="translate(564,63)"><text x="0" y="0" text-anchor="middle" dominant-baseline="text-before-edge" transform="translate(0,0)"/></g><g transform="translate(538,496)"><text x="0" y="0" text-anchor="middle" dominant-baseline="text-before-edge" transform="translate(0,0)"/></g><g transform="translate(538,384)"><text x="0" y="0" text-anchor="middle" dominant-baseline="text-before-edge" transform="translate(0,0)"/></g><g transform="translate(538,496)"><text x="0" y="0" text-anchor="middle" dominant-baseline="text-before-edge" transform="translate(0,0)"/></g><g transform="translate(538,384)"><text x="0" y="0" text-anchor="middle" dominant-baseline="text-before-edge" transform="translate(0,0)"/></g><g transform="translate(538,496)"><text x="0" y="0" text-anchor="middle" dominant-baseline="text-before-edge" transform="translate(0,0)"/></g><g transform="translate(538,384)"><text x="0" y="0" text-anchor="middle" dominant-baseline="text-before-edge" transform="translate(0,0)"/></g><g transform="translate(538,496)"><text x="0" y="0" text-anchor="middle" dominant-baseline="text-before-edge" transform="translate(0,0)"/></g><g transform="translate(538,384)"><text x="0" y="0" text-anchor="middle" dominant-baseline="text-before-edge" transform="translate(0,0)"/></g><g transform="translate(538,496)"><text x="0" y="0" text-anchor="middle" dominant-baseline="text-before-edge" transform="translate(0,0)"/></g><g transform="translate(538,384)"><text x="0" y="0" text-anchor="middle" dominant-baseline="text-before-edge" transform="translate(0,0)"/></g><g transform="translate(538,496)"><text x="0" y="0" text-anchor="middle" dominant-baseline="text-before-edge" transform="translate(0,0)"/></g><g transform="translate(538,384)"><text x="0" y="0" text-anchor="middle" dominant-baseline="text-before-edge" transform="translate(0,0)"/></g><g transform="translate(538,496)"><text x="0" y="0" text-anchor="middle" dominant-baseline="text-before-edge" transform="translate(0,0)"/></g><g transform="translate(538,384)"><text x="0" y="0" text-anchor="middle" dominant-baseline="text-before-edge" transform="translate(0,0)"/></g><g transform="translate(538,496)"><text x="0" y="0" text-anchor="middle" dominant-baseline="text-before-edge" transform="translate(0,0)"/></g><g transform="translate(538,384)"><text x="0" y="0" text-anchor="middle" dominant-baseline="text-before-edge" transform="translate(0,0)"/></g><g transform="translate(526,491)"><text x="0" y="0" text-anchor="middle" dominant-baseline="text-before-edge" transform="translate(0,0)"/></g><g transform="translate(526,24)"><text x="0" y="0" text-anchor="middle" dominant-baseline="text-before-edge" transform="translate(0,0)"/></g><g transform="translate(487,496)"><text x="0" y="0" text-anchor="middle" dominant-baseline="text-before-edge" transform="translate(0,0)"/></g><g transform="translate(487,382)"><text x="0" y="0" text-anchor="middle" dominant-baseline="text-before-edge" transform="translate(0,0)"/></g><g transform="translate(487,496)"><text x="0" y="0" text-anchor="middle" dominant-baseline="text-before-edge" transform="translate(0,0)"/></g><g transform="translate(487,382)"><text x="0" y="0" text-anchor="middle" dominant-baseline="text-before-edge" transform="translate(0,0)"/></g><g transform="translate(461,32)"><text x="0" y="0" text-anchor="middle" dominant-baseline="text-before-edge" transform="translate(0,0)"/></g><g transform="translate(437,496)"><text x="0" y="0" text-anchor="middle" dominant-baseline="text-before-edge" transform="translate(0,0)"/></g><g transform="translate(437,384)"><text x="0" y="0" text-anchor="middle" dominant-baseline="text-before-edge" transform="translate(0,0)"/></g><g transform="translate(437,496)"><text x="0" y="0" text-anchor="middle" dominant-baseline="text-before-edge" transform="translate(0,0)"/></g><g transform="translate(437,384)"><text x="0" y="0" text-anchor="middle" dominant-baseline="text-before-edge" transform="translate(0,0)"/></g><g transform="translate(410,492)"><text x="0" y="0" text-anchor="middle" dominant-baseline="text-before-edge" transform="translate(0,0)"/></g><g transform="translate(410,60)"><text x="0" y="0" text-anchor="middle" dominant-baseline="text-before-edge" transform="translate(0,0)"/></g><g transform="translate(386,497)"><text x="0" y="0" text-anchor="middle" dominant-baseline="text-before-edge" transform="translate(0,0)"/></g><g transform="translate(386,393)"><text x="0" y="0" text-anchor="middle" dominant-baseline="text-before-edge" transform="translate(0,0)"/></g><g transform="translate(366,492)"><text x="0" y="0" text-anchor="middle" dominant-baseline="text-before-edge" transform="translate(0,0)"/></g><g transform="translate(366,44)"><text x="0" y="0" text-anchor="middle" dominant-baseline="text-before-edge" transform="translate(0,0)"/></g><g transform="translate(334,497)"><text x="0" y="0" text-anchor="middle" dominant-baseline="text-before-edge" transform="translate(0,0)"/></g><g transform="translate(334,396)"><text x="0" y="0" text-anchor="middle" dominant-baseline="text-before-edge" transform="translate(0,0)"/></g><g transform="translate(308,492)"><text x="0" y="0" text-anchor="middle" dominant-baseline="text-before-edge" transform="translate(0,0)"/></g><g transform="translate(308,57)"><text x="0" y="0" text-anchor="middle" dominant-baseline="text-before-edge" transform="translate(0,0)"/></g><g transform="translate(308,492)"><text x="0" y="0" text-anchor="middle" dominant-baseline="text-before-edge" transform="translate(0,0)"/></g><g transform="translate(308,57)"><text x="0" y="0" text-anchor="middle" dominant-baseline="text-before-edge" transform="translate(0,0)"/></g><g transform="translate(283,497)"><text x="0" y="0" text-anchor="middle" dominant-baseline="text-before-edge" transform="translate(0,0)"/></g><g transform="translate(283,400)"><text x="0" y="0" text-anchor="middle" dominant-baseline="text-before-edge" transform="translate(0,0)"/></g><g transform="translate(256,492)"><text x="0" y="0" text-anchor="middle" dominant-baseline="text-before-edge" transform="translate(0,0)"/></g><g transform="translate(256,56)"><text x="0" y="0" text-anchor="middle" dominant-baseline="text-before-edge" transform="translate(0,0)"/></g><g transform="translate(232,497)"><text x="0" y="0" text-anchor="middle" dominant-baseline="text-before-edge" transform="translate(0,0)"/></g><g transform="translate(206,409)"><text x="0" y="0" text-anchor="middle" dominant-baseline="text-before-edge" transform="translate(0,0)"/></g><g transform="translate(205,492)"><text x="0" y="0" text-anchor="middle" dominant-baseline="text-before-edge" transform="translate(0,0)"/></g><g transform="translate(205,70)"><text x="0" y="0" text-anchor="middle" dominant-baseline="text-before-edge" transform="translate(0,0)"/></g><g transform="translate(205,492)"><text x="0" y="0" text-anchor="middle" dominant-baseline="text-before-edge" transform="translate(0,0)"/></g><g transform="translate(205,70)"><text x="0" y="0" text-anchor="middle" dominant-baseline="text-before-edge" transform="translate(0,0)"/></g><g transform="translate(181,497)"><text x="0" y="0" text-anchor="middle" dominant-baseline="text-before-edge" transform="translate(0,0)"/></g><g transform="translate(181,428)"><text x="0" y="0" text-anchor="middle" dominant-baseline="text-before-edge" transform="translate(0,0)"/></g><g transform="translate(181,497)"><text x="0" y="0" text-anchor="middle" dominant-baseline="text-before-edge" transform="translate(0,0)"/></g><g transform="translate(181,428)"><text x="0" y="0" text-anchor="middle" dominant-baseline="text-before-edge" transform="translate(0,0)"/></g><g transform="translate(181,497)"><text x="0" y="0" text-anchor="middle" dominant-baseline="text-before-edge" transform="translate(0,0)"/></g><g transform="translate(181,428)"><text x="0" y="0" text-anchor="middle" dominant-baseline="text-before-edge" transform="translate(0,0)"/></g><g transform="translate(181,497)"><text x="0" y="0" text-anchor="middle" dominant-baseline="text-before-edge" transform="translate(0,0)"/></g><g transform="translate(181,428)"><text x="0" y="0" text-anchor="middle" dominant-baseline="text-before-edge" transform="translate(0,0)"/></g><g transform="translate(181,497)"><text x="0" y="0" text-anchor="middle" dominant-baseline="text-before-edge" transform="translate(0,0)"/></g><g transform="translate(181,428)"><text x="0" y="0" text-anchor="middle" dominant-baseline="text-before-edge" transform="translate(0,0)"/></g><g transform="translate(181,497)"><text x="0" y="0" text-anchor="middle" dominant-baseline="text-before-edge" transform="translate(0,0)"/></g><g transform="translate(181,428)"><text x="0" y="0" text-anchor="middle" dominant-baseline="text-before-edge" transform="translate(0,0)"/></g><g transform="translate(181,497)"><text x="0" y="0" text-anchor="middle" dominant-baseline="text-before-edge" transform="translate(0,0)"/></g><g transform="translate(181,428)"><text x="0" y="0" text-anchor="middle" dominant-baseline="text-before-edge" transform="translate(0,0)"/></g><g transform="translate(181,497)"><text x="0" y="0" text-anchor="middle" dominant-baseline="text-before-edge" transform="translate(0,0)"/></g><g transform="translate(181,428)"><text x="0" y="0" text-anchor="middle" dominant-baseline="text-before-edge" transform="translate(0,0)"/></g><g transform="translate(154,497)"><text x="0" y="0" text-anchor="middle" dominant-baseline="text-before-edge" transform="translate(0,0)"/></g><g transform="translate(154,425)"><text x="0" y="0" text-anchor="middle" dominant-baseline="text-before-edge" transform="translate(0,0)"/></g><g transform="translate(154,493)"><text x="0" y="0" text-anchor="middle" dominant-baseline="text-before-edge" transform="translate(0,0)"/></g><g transform="translate(154,110)"><text x="0" y="0" text-anchor="middle" dominant-baseline="text-before-edge" transform="translate(0,0)"/></g><g transform="translate(104,498)"><text x="0" y="0" text-anchor="middle" dominant-baseline="text-before-edge" transform="translate(0,0)"/></g><g transform="translate(104,441)"><text x="0" y="0" text-anchor="middle" dominant-baseline="text-before-edge" transform="translate(0,0)"/></g><g transform="translate(103,493)"><text x="0" y="0" text-anchor="middle" dominant-baseline="text-before-edge" transform="translate(0,0)"/></g><g transform="translate(103,150)"><text x="0" y="0" text-anchor="middle" dominant-baseline="text-before-edge" transform="translate(0,0)"/></g><g transform="translate(51,498)"><text x="0" y="0" text-anchor="middle" dominant-baseline="text-before-edge" transform="translate(0,0)"/></g><g transform="translate(51,447)"><text x="0" y="0" text-anchor="middle" dominant-baseline="text-before-edge" transform="translate(0,0)"/></g><g transform="translate(51,498)"><text x="0" y="0" text-anchor="middle" dominant-baseline="text-before-edge" transform="translate(0,0)"/></g><g transform="translate(51,447)"><text x="0" y="0" text-anchor="middle" dominant-baseline="text-before-edge" transform="translate(0,0)"/></g><g transform="translate(51,498)"><text x="0" y="0" text-anchor="middle" dominant-baseline="text-before-edge" transform="translate(0,0)"/></g><g transform="translate(51,447)"><text x="0" y="0" text-anchor="middle" dominant-baseline="text-before-edge" transform="translate(0,0)"/></g><g transform="translate(51,498)"><text x="0" y="0" text-anchor="middle" dominant-baseline="text-before-edge" transform="translate(0,0)"/></g><g transform="translate(51,447)"><text x="0" y="0" text-anchor="middle" dominant-baseline="text-before-edge" transform="translate(0,0)"/></g><g transform="translate(51,498)"><text x="0" y="0" text-anchor="middle" dominant-baseline="text-before-edge" transform="translate(0,0)"/></g><g transform="translate(51,447)"><text x="0" y="0" text-anchor="middle" dominant-baseline="text-before-edge" transform="translate(0,0)"/></g><g transform="translate(51,498)"><text x="0" y="0" text-anchor="middle" dominant-baseline="text-before-edge" transform="translate(0,0)"/></g><g transform="translate(51,447)"><text x="0" y="0" text-anchor="middle" dominant-baseline="text-before-edge" transform="translate(0,0)"/></g><g transform="translate(51,498)"><text x="0" y="0" text-anchor="middle" dominant-baseline="text-before-edge" transform="translate(0,0)"/></g><g transform="translate(51,447)"><text x="0" y="0" text-anchor="middle" dominant-baseline="text-before-edge" transform="translate(0,0)"/></g><g transform="translate(51,498)"><text x="0" y="0" text-anchor="middle" dominant-baseline="text-before-edge" transform="translate(0,0)"/></g><g transform="translate(51,447)"><text x="0" y="0" text-anchor="middle" dominant-baseline="text-before-edge" transform="translate(0,0)"/></g><g transform="translate(51,498)"><text x="0" y="0" text-anchor="middle" dominant-baseline="text-before-edge" transform="translate(0,0)"/></g><g transform="translate(51,447)"><text x="0" y="0" text-anchor="middle" dominant-baseline="text-before-edge" transform="translate(0,0)"/></g><g transform="translate(51,498)"><text x="0" y="0" text-anchor="middle" dominant-baseline="text-before-edge" transform="translate(0,0)"/></g><g transform="translate(51,447)"><text x="0" y="0" text-anchor="middle" dominant-baseline="text-before-edge" transform="translate(0,0)"/></g><g transform="translate(1,498)"><text x="0" y="0" text-anchor="middle" dominant-baseline="text-before-edge" transform="translate(0,0)"/></g></g></g></g><text y="4" x="4" style="font-family: Arial, sans-serif; font-size: 12px; fill: black; font-weight: bold; dominant-baseline: hanging;"/></g></g><g id="grid"><rect x="0" y="0" width="805" height="600" fill="none" stroke="#ccc"/></g><clipPath id="serieClipPath"><rect x="-50" y="-50" width="805" height="600"/></clipPath></svg>